<svg width="42" height="41" viewBox="0 0 42 41" fill="none" xmlns="http://www.w3.org/2000/svg">
<path d="M41.4924 8.03813C41.3481 7.86963 41.1676 7.73411 40.9637 7.64112C40.7598 7.54814 40.5375 7.49996 40.3124 7.5H9.30871L8.36892 2.46375C8.2402 1.7725 7.86689 1.14726 7.31407 0.697016C6.76126 0.246775 6.06401 0.000101539 5.34389 0H1.8749C1.46713 0 1.07606 0.158035 0.787726 0.43934C0.499388 0.720644 0.337402 1.10218 0.337402 1.5C0.337402 1.89782 0.499388 2.27936 0.787726 2.56066C1.07606 2.84196 1.46713 3 1.8749 3H5.33428L10.2466 29.3044C10.3913 30.0845 10.7447 30.8135 11.2709 31.4175C10.5446 32.0794 10.0203 32.9247 9.75624 33.8595C9.49219 34.7944 9.49869 35.7823 9.77502 36.7138C10.0513 37.6453 10.5867 38.4839 11.3217 39.1366C12.0568 39.7894 12.9627 40.2308 13.9392 40.4119C14.9157 40.5929 15.9244 40.5067 16.8537 40.1625C17.783 39.8184 18.5964 39.23 19.2038 38.4624C19.8111 37.6948 20.1887 36.7781 20.2947 35.8139C20.4007 34.8497 20.2308 33.8758 19.8041 33H28.5332C28.1893 33.7025 28.0113 34.4714 28.0124 35.25C28.0124 36.2884 28.328 37.3034 28.9193 38.1667C29.5106 39.0301 30.351 39.703 31.3343 40.1004C32.3176 40.4977 33.3996 40.6017 34.4435 40.3991C35.4873 40.1966 36.4462 39.6965 37.1988 38.9623C37.9514 38.2281 38.4639 37.2926 38.6715 36.2742C38.8791 35.2558 38.7726 34.2002 38.3653 33.2409C37.958 32.2816 37.2683 31.4617 36.3833 30.8848C35.4984 30.3079 34.458 30 33.3937 30H14.7841C14.4241 29.9999 14.0754 29.8766 13.799 29.6515C13.5226 29.4264 13.336 29.1137 13.2716 28.7681L12.6624 25.5H34.9561C36.0363 25.4998 37.0822 25.1298 37.9114 24.4545C38.7406 23.7791 39.3006 22.8412 39.4937 21.8044L41.8307 9.26813C41.8702 9.05145 41.8605 8.82893 41.802 8.61637C41.7435 8.4038 41.6379 8.20638 41.4924 8.03813ZM33.3937 33C33.8498 33 34.2957 33.132 34.6749 33.3792C35.0542 33.6264 35.3498 33.9778 35.5243 34.389C35.6989 34.8001 35.7446 35.2525 35.6556 35.689C35.5666 36.1254 35.347 36.5263 35.0244 36.841C34.7019 37.1557 34.2909 37.3699 33.8436 37.4568C33.3962 37.5436 32.9325 37.499 32.5111 37.3287C32.0897 37.1584 31.7295 36.87 31.4761 36.5C31.2227 36.13 31.0874 35.695 31.0874 35.25C31.0874 34.6533 31.3304 34.081 31.7629 33.659C32.1954 33.2371 32.782 33 33.3937 33ZM14.9437 33C15.3998 33 15.8457 33.132 16.2249 33.3792C16.6042 33.6264 16.8998 33.9778 17.0743 34.389C17.2489 34.8001 17.2946 35.2525 17.2056 35.689C17.1166 36.1254 16.897 36.5263 16.5744 36.841C16.2519 37.1557 15.8409 37.3699 15.3936 37.4568C14.9462 37.5436 14.4825 37.499 14.0611 37.3287C13.6397 37.1584 13.2795 36.87 13.0261 36.5C12.7727 36.13 12.6374 35.695 12.6374 35.25C12.6374 34.6533 12.8804 34.081 13.3129 33.659C13.7454 33.2371 14.332 33 14.9437 33Z" fill="#B47150"/>
</svg>
