<svg width="44" height="39" viewBox="0 0 44 39" fill="none" xmlns="http://www.w3.org/2000/svg">
<path d="M35.975 12H2.14999C1.74222 12 1.35115 12.158 1.06281 12.4393C0.774474 12.7206 0.612488 13.1022 0.612488 13.5V22.5C0.617083 25.0537 1.17687 27.5774 2.25488 29.9045C3.33289 32.2316 4.90461 34.3092 6.86627 36H2.14999C1.74222 36 1.35115 36.158 1.06281 36.4393C0.774474 36.7206 0.612488 37.1022 0.612488 37.5C0.612488 37.8978 0.774474 38.2794 1.06281 38.5607C1.35115 38.842 1.74222 39 2.14999 39H35.975C36.3828 39 36.7738 38.842 37.0622 38.5607C37.3505 38.2794 37.5125 37.8978 37.5125 37.5C37.5125 37.1022 37.3505 36.7206 37.0622 36.4393C36.7738 36.158 36.3828 36 35.975 36H31.2587C33.6134 33.9639 35.399 31.3773 36.4478 28.4831C38.4006 28.3657 40.2341 27.5263 41.5746 26.1359C42.9151 24.7455 43.6618 22.9088 43.6625 21V19.5C43.6625 17.5109 42.8526 15.6032 41.4109 14.1967C39.9692 12.7902 38.0138 12 35.975 12ZM40.5875 21C40.5868 21.9705 40.2646 22.9147 39.6688 23.6919C39.0731 24.4691 38.2358 25.0375 37.2819 25.3125C37.4342 24.3824 37.5113 23.4419 37.5125 22.5V15.2587C38.4115 15.5689 39.19 16.1432 39.7407 16.9027C40.2913 17.6623 40.5872 18.5697 40.5875 19.5V21ZM17.525 7.5V1.5C17.525 1.10218 17.687 0.720644 17.9753 0.43934C18.2636 0.158035 18.6547 0 19.0625 0C19.4703 0 19.8613 0.158035 20.1497 0.43934C20.438 0.720644 20.6 1.10218 20.6 1.5V7.5C20.6 7.89782 20.438 8.27936 20.1497 8.56066C19.8613 8.84196 19.4703 9 19.0625 9C18.6547 9 18.2636 8.84196 17.9753 8.56066C17.687 8.27936 17.525 7.89782 17.525 7.5ZM23.675 7.5V1.5C23.675 1.10218 23.837 0.720644 24.1253 0.43934C24.4136 0.158035 24.8047 0 25.2125 0C25.6203 0 26.0113 0.158035 26.2997 0.43934C26.588 0.720644 26.75 1.10218 26.75 1.5V7.5C26.75 7.89782 26.588 8.27936 26.2997 8.56066C26.0113 8.84196 25.6203 9 25.2125 9C24.8047 9 24.4136 8.84196 24.1253 8.56066C23.837 8.27936 23.675 7.89782 23.675 7.5ZM11.375 7.5V1.5C11.375 1.10218 11.537 0.720644 11.8253 0.43934C12.1136 0.158035 12.5047 0 12.9125 0C13.3203 0 13.7113 0.158035 13.9997 0.43934C14.288 0.720644 14.45 1.10218 14.45 1.5V7.5C14.45 7.89782 14.288 8.27936 13.9997 8.56066C13.7113 8.84196 13.3203 9 12.9125 9C12.5047 9 12.1136 8.84196 11.8253 8.56066C11.537 8.27936 11.375 7.89782 11.375 7.5Z" fill="black"/>
</svg>
